{
	"asset":{
		"generator":"Khronos glTF Blender I/O v4.1.62",
		"version":"2.0"
	},
	"scene":0,
	"scenes":[
		{
			"name":"Scene",
			"nodes":[
				4
			]
		}
	],
	"nodes":[
		{
			"mesh":0,
			"name":"azimuth",
			"translation":[
				0.24975404143333435,
				2.285714864730835,
				-0.2576819062232971
			]
		},
		{
			"mesh":1,
			"name":"base",
			"translation":[
				0.2495654672384262,
				0.5623334646224976,
				-0.2511679232120514
			]
		},
		{
			"mesh":2,
			"name":"inclinacion",
			"translation":[
				0.2875883877277374,
				2.362043619155884,
				-0.2645217180252075
			]
		},
		{
			"mesh":3,
			"name":"panel",
			"translation":[
				0.22597303986549377,
				2.5329389572143555,
				-0.25882792472839355
			]
		},
		{
			"children":[
				0,
				1,
				2,
				3
			],
			"name":"root",
			"rotation":[
				-0.0037548146210610867,
				-0.7070093154907227,
				0.01112762838602066,
				0.7071067094802856
			]
		}
	],
	"materials":[
		{
			"name":"Color M06",
			"pbrMetallicRoughness":{
				"baseColorFactor":[
					0.09149999916553497,
					0.09149999916553497,
					0.09149999916553497,
					1
				],
				"metallicFactor":0.10000000149011612,
				"roughnessFactor":0.8999999761581421
			}
		},
		{
			"doubleSided":true,
			"name":"default material",
			"pbrMetallicRoughness":{
				"baseColorFactor":[
					0.2176000028848648,
					0.2176000028848648,
					0.2176000028848648,
					1
				],
				"metallicFactor":0.10000000149011612,
				"roughnessFactor":0.8999999761581421
			}
		},
		{
			"name":"Concreto agregado color humo",
			"pbrMetallicRoughness":{
				"baseColorTexture":{
					"index":0
				},
				"metallicFactor":0.10000000149011612,
				"roughnessFactor":0.8999999761581421
			}
		},
		{
			"name":"Color M07",
			"pbrMetallicRoughness":{
				"baseColorFactor":[
					0.03849999979138374,
					0.03849999979138374,
					0.03849999979138374,
					1
				],
				"metallicFactor":0.10000000149011612,
				"roughnessFactor":0.8999999761581421
			}
		},
		{
			"name":"0130_Gainsboro",
			"pbrMetallicRoughness":{
				"baseColorFactor":[
					0.7226999998092651,
					0.7226999998092651,
					0.7226999998092651,
					1
				],
				"metallicFactor":0.10000000149011612,
				"roughnessFactor":0.8999999761581421
			}
		},
		{
			"name":"Material3",
			"pbrMetallicRoughness":{
				"baseColorTexture":{
					"index":1
				},
				"metallicFactor":0.10000000149011612,
				"roughnessFactor":0.8999999761581421
			}
		},
		{
			"name":"Color A05",
			"pbrMetallicRoughness":{
				"baseColorFactor":[
					1,
					0,
					0,
					1
				],
				"metallicFactor":0.10000000149011612,
				"roughnessFactor":0.8999999761581421
			}
		},
		{
			"name":"Color M00",
			"pbrMetallicRoughness":{
				"metallicFactor":0.10000000149011612,
				"roughnessFactor":0.8999999761581421
			}
		},
		{
			"name":"0129_BlancoHumo",
			"pbrMetallicRoughness":{
				"baseColorFactor":[
					0.9157999753952026,
					0.9157999753952026,
					0.9157999753952026,
					1
				],
				"metallicFactor":0.10000000149011612,
				"roughnessFactor":0.8999999761581421
			}
		}
	],
	"meshes":[
		{
			"name":"Mesh_1",
			"primitives":[
				{
					"attributes":{
						"POSITION":0,
						"NORMAL":1
					},
					"indices":2,
					"material":0
				}
			]
		},
		{
			"name":"Mesh_2",
			"primitives":[
				{
					"attributes":{
						"POSITION":3,
						"NORMAL":4,
						"TEXCOORD_0":5
					},
					"indices":6,
					"material":0
				},
				{
					"attributes":{
						"POSITION":7,
						"NORMAL":8,
						"TEXCOORD_0":9
					},
					"indices":10,
					"material":1
				},
				{
					"attributes":{
						"POSITION":11,
						"NORMAL":12,
						"TEXCOORD_0":13
					},
					"indices":14,
					"material":2
				}
			]
		},
		{
			"name":"Mesh_0",
			"primitives":[
				{
					"attributes":{
						"POSITION":15,
						"NORMAL":16
					},
					"indices":17,
					"material":3
				}
			]
		},
		{
			"name":"Mesh_3",
			"primitives":[
				{
					"attributes":{
						"POSITION":18,
						"NORMAL":19,
						"TEXCOORD_0":20
					},
					"indices":21,
					"material":4
				},
				{
					"attributes":{
						"POSITION":22,
						"NORMAL":23,
						"TEXCOORD_0":24
					},
					"indices":25,
					"material":5
				},
				{
					"attributes":{
						"POSITION":26,
						"NORMAL":27,
						"TEXCOORD_0":28
					},
					"indices":29,
					"material":6
				},
				{
					"attributes":{
						"POSITION":30,
						"NORMAL":31,
						"TEXCOORD_0":32
					},
					"indices":33,
					"material":7
				},
				{
					"attributes":{
						"POSITION":34,
						"NORMAL":35,
						"TEXCOORD_0":36
					},
					"indices":37,
					"material":8
				}
			]
		}
	],
	"textures":[
		{
			"sampler":0,
			"source":0
		},
		{
			"sampler":0,
			"source":1
		}
	],
	"images":[
		{
			"mimeType":"image/jpeg",
			"name":"Image_0",
			"uri":"Image_0.jpg"
		},
		{
			"mimeType":"image/jpeg",
			"name":"Image_1",
			"uri":"Image_1.jpg"
		}
	],
	"accessors":[
		{
			"bufferView":0,
			"componentType":5126,
			"count":28,
			"max":[
				0.10000000894069672,
				0.11428523063659668,
				0.09999997913837433
			],
			"min":[
				-0.09999999403953552,
				-0.08571481704711914,
				-0.10000002384185791
			],
			"type":"VEC3"
		},
		{
			"bufferView":1,
			"componentType":5126,
			"count":28,
			"type":"VEC3"
		},
		{
			"bufferView":2,
			"componentType":5123,
			"count":48,
			"type":"SCALAR"
		},
		{
			"bufferView":3,
			"componentType":5126,
			"count":147,
			"max":[
				0.2504345178604126,
				1.6376667022705078,
				0.2511679232120514
			],
			"min":[
				-0.2495654821395874,
				-0.36233341693878174,
				-0.2488320767879486
			],
			"type":"VEC3"
		},
		{
			"bufferView":4,
			"componentType":5126,
			"count":147,
			"type":"VEC3"
		},
		{
			"bufferView":5,
			"componentType":5126,
			"count":147,
			"type":"VEC2"
		},
		{
			"bufferView":6,
			"componentType":5123,
			"count":321,
			"type":"SCALAR"
		},
		{
			"bufferView":7,
			"componentType":5126,
			"count":114,
			"max":[
				0.2504345178604126,
				1.6376667022705078,
				0.2511679232120514
			],
			"min":[
				-0.2495654821395874,
				-0.36233341693878174,
				-0.2488320767879486
			],
			"type":"VEC3"
		},
		{
			"bufferView":8,
			"componentType":5126,
			"count":114,
			"type":"VEC3"
		},
		{
			"bufferView":9,
			"componentType":5126,
			"count":114,
			"type":"VEC2"
		},
		{
			"bufferView":10,
			"componentType":5123,
			"count":264,
			"type":"SCALAR"
		},
		{
			"bufferView":11,
			"componentType":5126,
			"count":85,
			"max":[
				0.2504345178604126,
				-0.36233341693878174,
				0.2511679232120514
			],
			"min":[
				-0.2495654821395874,
				-0.5623334050178528,
				-0.2488320767879486
			],
			"type":"VEC3"
		},
		{
			"bufferView":12,
			"componentType":5126,
			"count":85,
			"type":"VEC3"
		},
		{
			"bufferView":13,
			"componentType":5126,
			"count":85,
			"type":"VEC2"
		},
		{
			"bufferView":14,
			"componentType":5123,
			"count":201,
			"type":"SCALAR"
		},
		{
			"bufferView":15,
			"componentType":5126,
			"count":802,
			"max":[
				0.8421657085418701,
				0.14795660972595215,
				1.1069438457489014
			],
			"min":[
				-0.9178344011306763,
				-0.1420300006866455,
				-1.0930562019348145
			],
			"type":"VEC3"
		},
		{
			"bufferView":16,
			"componentType":5126,
			"count":802,
			"type":"VEC3"
		},
		{
			"bufferView":17,
			"componentType":5123,
			"count":1884,
			"type":"SCALAR"
		},
		{
			"bufferView":18,
			"componentType":5126,
			"count":59,
			"max":[
				0.9037810564041138,
				0.027060985565185547,
				1.1112500429153442
			],
			"min":[
				-0.8532190322875977,
				-0.022938966751098633,
				-1.1087499856948853
			],
			"type":"VEC3"
		},
		{
			"bufferView":19,
			"componentType":5126,
			"count":59,
			"type":"VEC3"
		},
		{
			"bufferView":20,
			"componentType":5126,
			"count":59,
			"type":"VEC2"
		},
		{
			"bufferView":21,
			"componentType":5123,
			"count":114,
			"type":"SCALAR"
		},
		{
			"bufferView":22,
			"componentType":5126,
			"count":10,
			"max":[
				0.8637809753417969,
				0.024060964584350586,
				1.0712499618530273
			],
			"min":[
				-0.8132190704345703,
				0.024060964584350586,
				-1.068750023841858
			],
			"type":"VEC3"
		},
		{
			"bufferView":23,
			"componentType":5126,
			"count":10,
			"type":"VEC3"
		},
		{
			"bufferView":24,
			"componentType":5126,
			"count":10,
			"type":"VEC2"
		},
		{
			"bufferView":25,
			"componentType":5123,
			"count":18,
			"type":"SCALAR"
		},
		{
			"bufferView":26,
			"componentType":5126,
			"count":53,
			"max":[
				0.8937810659408569,
				0.027060985565185547,
				1.1012500524520874
			],
			"min":[
				-0.8432190418243408,
				-0.022938966751098633,
				-1.0987499952316284
			],
			"type":"VEC3"
		},
		{
			"bufferView":27,
			"componentType":5126,
			"count":53,
			"type":"VEC3"
		},
		{
			"bufferView":28,
			"componentType":5126,
			"count":53,
			"type":"VEC2"
		},
		{
			"bufferView":29,
			"componentType":5123,
			"count":93,
			"type":"SCALAR"
		},
		{
			"bufferView":30,
			"componentType":5126,
			"count":4,
			"max":[
				0.8937810659408569,
				0.002061128616333008,
				1.1012500524520874
			],
			"min":[
				-0.8432190418243408,
				0.002061128616333008,
				-1.0987499952316284
			],
			"type":"VEC3"
		},
		{
			"bufferView":31,
			"componentType":5126,
			"count":4,
			"type":"VEC3"
		},
		{
			"bufferView":32,
			"componentType":5126,
			"count":4,
			"type":"VEC2"
		},
		{
			"bufferView":33,
			"componentType":5123,
			"count":6,
			"type":"SCALAR"
		},
		{
			"bufferView":34,
			"componentType":5126,
			"count":5,
			"max":[
				0.8637809753417969,
				0.024060964584350586,
				0.0012499988079071045
			],
			"min":[
				-0.8132190704345703,
				0.024060964584350586,
				-0.008749991655349731
			],
			"type":"VEC3"
		},
		{
			"bufferView":35,
			"componentType":5126,
			"count":5,
			"type":"VEC3"
		},
		{
			"bufferView":36,
			"componentType":5126,
			"count":5,
			"type":"VEC2"
		},
		{
			"bufferView":37,
			"componentType":5123,
			"count":9,
			"type":"SCALAR"
		}
	],
	"bufferViews":[
		{
			"buffer":0,
			"byteLength":336,
			"byteOffset":0,
			"target":34962
		},
		{
			"buffer":0,
			"byteLength":336,
			"byteOffset":336,
			"target":34962
		},
		{
			"buffer":0,
			"byteLength":96,
			"byteOffset":672,
			"target":34963
		},
		{
			"buffer":0,
			"byteLength":1764,
			"byteOffset":768,
			"target":34962
		},
		{
			"buffer":0,
			"byteLength":1764,
			"byteOffset":2532,
			"target":34962
		},
		{
			"buffer":0,
			"byteLength":1176,
			"byteOffset":4296,
			"target":34962
		},
		{
			"buffer":0,
			"byteLength":642,
			"byteOffset":5472,
			"target":34963
		},
		{
			"buffer":0,
			"byteLength":1368,
			"byteOffset":6116,
			"target":34962
		},
		{
			"buffer":0,
			"byteLength":1368,
			"byteOffset":7484,
			"target":34962
		},
		{
			"buffer":0,
			"byteLength":912,
			"byteOffset":8852,
			"target":34962
		},
		{
			"buffer":0,
			"byteLength":528,
			"byteOffset":9764,
			"target":34963
		},
		{
			"buffer":0,
			"byteLength":1020,
			"byteOffset":10292,
			"target":34962
		},
		{
			"buffer":0,
			"byteLength":1020,
			"byteOffset":11312,
			"target":34962
		},
		{
			"buffer":0,
			"byteLength":680,
			"byteOffset":12332,
			"target":34962
		},
		{
			"buffer":0,
			"byteLength":402,
			"byteOffset":13012,
			"target":34963
		},
		{
			"buffer":0,
			"byteLength":9624,
			"byteOffset":13416,
			"target":34962
		},
		{
			"buffer":0,
			"byteLength":9624,
			"byteOffset":23040,
			"target":34962
		},
		{
			"buffer":0,
			"byteLength":3768,
			"byteOffset":32664,
			"target":34963
		},
		{
			"buffer":0,
			"byteLength":708,
			"byteOffset":36432,
			"target":34962
		},
		{
			"buffer":0,
			"byteLength":708,
			"byteOffset":37140,
			"target":34962
		},
		{
			"buffer":0,
			"byteLength":472,
			"byteOffset":37848,
			"target":34962
		},
		{
			"buffer":0,
			"byteLength":228,
			"byteOffset":38320,
			"target":34963
		},
		{
			"buffer":0,
			"byteLength":120,
			"byteOffset":38548,
			"target":34962
		},
		{
			"buffer":0,
			"byteLength":120,
			"byteOffset":38668,
			"target":34962
		},
		{
			"buffer":0,
			"byteLength":80,
			"byteOffset":38788,
			"target":34962
		},
		{
			"buffer":0,
			"byteLength":36,
			"byteOffset":38868,
			"target":34963
		},
		{
			"buffer":0,
			"byteLength":636,
			"byteOffset":38904,
			"target":34962
		},
		{
			"buffer":0,
			"byteLength":636,
			"byteOffset":39540,
			"target":34962
		},
		{
			"buffer":0,
			"byteLength":424,
			"byteOffset":40176,
			"target":34962
		},
		{
			"buffer":0,
			"byteLength":186,
			"byteOffset":40600,
			"target":34963
		},
		{
			"buffer":0,
			"byteLength":48,
			"byteOffset":40788,
			"target":34962
		},
		{
			"buffer":0,
			"byteLength":48,
			"byteOffset":40836,
			"target":34962
		},
		{
			"buffer":0,
			"byteLength":32,
			"byteOffset":40884,
			"target":34962
		},
		{
			"buffer":0,
			"byteLength":12,
			"byteOffset":40916,
			"target":34963
		},
		{
			"buffer":0,
			"byteLength":60,
			"byteOffset":40928,
			"target":34962
		},
		{
			"buffer":0,
			"byteLength":60,
			"byteOffset":40988,
			"target":34962
		},
		{
			"buffer":0,
			"byteLength":40,
			"byteOffset":41048,
			"target":34962
		},
		{
			"buffer":0,
			"byteLength":18,
			"byteOffset":41088,
			"target":34963
		}
	],
	"samplers":[
		{
			"magFilter":9729,
			"minFilter":9987
		}
	],
	"buffers":[
		{
			"byteLength":41108,
			"uri":"untitled.bin"
		}
	]
}
