{
	"asset":{
		"generator":"Khronos glTF Blender I/O v4.1.62",
		"version":"2.0"
	},
	"scene":0,
	"scenes":[
		{
			"name":"Scene",
			"nodes":[
				4
			]
		}
	],
	"nodes":[
		{
			"mesh":0,
			"name":"Bateria",
			"translation":[
				0.5662230253219604,
				4.039330959320068,
				-0.009942285716533661
			]
		},
		{
			"mesh":1,
			"name":"panel",
			"translation":[
				0.4809551239013672,
				4.1215691566467285,
				0.0003521356265991926
			]
		},
		{
			"mesh":2,
			"name":"placaLed",
			"translation":[
				0.20620226860046387,
				4.173493385314941,
				-0.010631555691361427
			]
		},
		{
			"mesh":3,
			"name":"plasticoLed",
			"translation":[
				0.20604729652404785,
				4.16975736618042,
				-0.005484606605023146
			]
		},
		{
			"children":[
				0,
				1,
				2,
				3
			],
			"mesh":4,
			"name":"root",
			"translation":[
				1.2762783765792847,
				1.4631456136703491,
				-0.003128636162728071
			]
		}
	],
	"materials":[
		{
			"name":"Color M08",
			"pbrMetallicRoughness":{
				"baseColorFactor":[
					0.008999999612569809,
					0.008999999612569809,
					0.008999999612569809,
					1
				],
				"metallicFactor":0.10000000149011612,
				"roughnessFactor":0.8999999761581421
			}
		},
		{
			"name":"0137_Negro",
			"pbrMetallicRoughness":{
				"baseColorFactor":[
					0,
					0,
					0,
					1
				],
				"metallicFactor":0.10000000149011612,
				"roughnessFactor":0.8999999761581421
			}
		},
		{
			"name":"Metal plateado",
			"pbrMetallicRoughness":{
				"baseColorTexture":{
					"index":0
				},
				"roughnessFactor":0.10000000149011612
			}
		},
		{
			"name":"Color M04",
			"pbrMetallicRoughness":{
				"baseColorFactor":[
					0.2757999897003174,
					0.2757999897003174,
					0.2757999897003174,
					1
				],
				"metallicFactor":0.10000000149011612,
				"roughnessFactor":0.8999999761581421
			}
		},
		{
			"name":"panel",
			"pbrMetallicRoughness":{
				"baseColorTexture":{
					"index":1
				},
				"metallicFactor":0.10000000149011612,
				"roughnessFactor":0.8999999761581421
			}
		},
		{
			"name":"Color M01",
			"pbrMetallicRoughness":{
				"baseColorFactor":[
					0.766700029373169,
					0.766700029373169,
					0.766700029373169,
					1
				],
				"metallicFactor":0.10000000149011612,
				"roughnessFactor":0.8999999761581421
			}
		},
		{
			"name":"Material1",
			"pbrMetallicRoughness":{
				"baseColorTexture":{
					"index":2
				},
				"metallicFactor":0.10000000149011612,
				"roughnessFactor":0.8999999761581421
			}
		},
		{
			"name":"Color M00",
			"pbrMetallicRoughness":{
				"metallicFactor":0.10000000149011612,
				"roughnessFactor":0.8999999761581421
			}
		},
		{
			"alphaMode":"BLEND",
			"doubleSided":true,
			"name":"Vidrio gris transl\u00facido",
			"pbrMetallicRoughness":{
				"baseColorFactor":[
					0.21950000524520874,
					0.21950000524520874,
					0.21950000524520874,
					0.5
				],
				"metallicFactor":0.10000000149011612,
				"roughnessFactor":0.8999999761581421
			}
		},
		{
			"doubleSided":true,
			"name":"Asfalto nuevo",
			"pbrMetallicRoughness":{
				"baseColorTexture":{
					"index":3
				},
				"metallicFactor":0.10000000149011612,
				"roughnessFactor":0.8999999761581421
			}
		},
		{
			"name":"Concreto agregado color humo",
			"pbrMetallicRoughness":{
				"baseColorTexture":{
					"index":4
				},
				"metallicFactor":0.10000000149011612,
				"roughnessFactor":0.8999999761581421
			}
		},
		{
			"doubleSided":true,
			"name":"default material",
			"pbrMetallicRoughness":{
				"baseColorFactor":[
					0.2176000028848648,
					0.2176000028848648,
					0.2176000028848648,
					1
				],
				"metallicFactor":0.10000000149011612,
				"roughnessFactor":0.8999999761581421
			}
		},
		{
			"doubleSided":true,
			"name":"Asfalto viejo 02",
			"pbrMetallicRoughness":{
				"baseColorTexture":{
					"index":5
				},
				"metallicFactor":0.10000000149011612,
				"roughnessFactor":0.8999999761581421
			}
		},
		{
			"name":"Pavimento ladrillos en espiga",
			"pbrMetallicRoughness":{
				"baseColorTexture":{
					"index":6
				},
				"metallicFactor":0.10000000149011612,
				"roughnessFactor":0.8999999761581421
			}
		}
	],
	"meshes":[
		{
			"name":"Mesh_1",
			"primitives":[
				{
					"attributes":{
						"POSITION":0,
						"NORMAL":1
					},
					"indices":2,
					"material":0
				}
			]
		},
		{
			"name":"Mesh_0",
			"primitives":[
				{
					"attributes":{
						"POSITION":3,
						"NORMAL":4,
						"TEXCOORD_0":5
					},
					"indices":6,
					"material":0
				},
				{
					"attributes":{
						"POSITION":7,
						"NORMAL":8,
						"TEXCOORD_0":9
					},
					"indices":10,
					"material":1
				},
				{
					"attributes":{
						"POSITION":11,
						"NORMAL":12,
						"TEXCOORD_0":13
					},
					"indices":14,
					"material":2
				},
				{
					"attributes":{
						"POSITION":15,
						"NORMAL":16,
						"TEXCOORD_0":17
					},
					"indices":18,
					"material":3
				},
				{
					"attributes":{
						"POSITION":19,
						"NORMAL":20,
						"TEXCOORD_0":21
					},
					"indices":22,
					"material":4
				},
				{
					"attributes":{
						"POSITION":23,
						"NORMAL":24,
						"TEXCOORD_0":25
					},
					"indices":26,
					"material":5
				}
			]
		},
		{
			"name":"Mesh_2",
			"primitives":[
				{
					"attributes":{
						"POSITION":27,
						"NORMAL":28,
						"TEXCOORD_0":29
					},
					"indices":30,
					"material":6
				},
				{
					"attributes":{
						"POSITION":31,
						"NORMAL":32,
						"TEXCOORD_0":33
					},
					"indices":34,
					"material":7
				}
			]
		},
		{
			"name":"Mesh_3",
			"primitives":[
				{
					"attributes":{
						"POSITION":35,
						"NORMAL":36
					},
					"indices":37,
					"material":8
				}
			]
		},
		{
			"name":"Mesh_4",
			"primitives":[
				{
					"attributes":{
						"POSITION":38,
						"NORMAL":39,
						"TEXCOORD_0":40
					},
					"indices":41,
					"material":9
				},
				{
					"attributes":{
						"POSITION":42,
						"NORMAL":43,
						"TEXCOORD_0":44
					},
					"indices":45,
					"material":10
				},
				{
					"attributes":{
						"POSITION":46,
						"NORMAL":47,
						"TEXCOORD_0":48
					},
					"indices":49,
					"material":11
				},
				{
					"attributes":{
						"POSITION":50,
						"NORMAL":51,
						"TEXCOORD_0":52
					},
					"indices":53,
					"material":12
				},
				{
					"attributes":{
						"POSITION":54,
						"NORMAL":55,
						"TEXCOORD_0":56
					},
					"indices":57,
					"material":13
				}
			]
		}
	],
	"textures":[
		{
			"sampler":0,
			"source":0
		},
		{
			"sampler":0,
			"source":1
		},
		{
			"sampler":0,
			"source":2
		},
		{
			"sampler":0,
			"source":3
		},
		{
			"sampler":0,
			"source":4
		},
		{
			"sampler":0,
			"source":5
		},
		{
			"sampler":0,
			"source":6
		}
	],
	"images":[
		{
			"mimeType":"image/jpeg",
			"name":"Image_4",
			"uri":"Image_4.jpg"
		},
		{
			"mimeType":"image/png",
			"name":"Image_5",
			"uri":"Image_5.png"
		},
		{
			"mimeType":"image/jpeg",
			"name":"Image_6",
			"uri":"Image_6.jpg"
		},
		{
			"mimeType":"image/jpeg",
			"name":"Image_0",
			"uri":"Image_0.jpg"
		},
		{
			"mimeType":"image/jpeg",
			"name":"Image_1",
			"uri":"Image_1.jpg"
		},
		{
			"mimeType":"image/jpeg",
			"name":"Image_2",
			"uri":"Image_2.jpg"
		},
		{
			"mimeType":"image/jpeg",
			"name":"Image_3",
			"uri":"Image_3.jpg"
		}
	],
	"accessors":[
		{
			"bufferView":0,
			"componentType":5126,
			"count":1818,
			"max":[
				0.28865909576416016,
				0.08349323272705078,
				0.1702728420495987
			],
			"min":[
				-0.17401516437530518,
				-0.10246515274047852,
				-0.15687938034534454
			],
			"type":"VEC3"
		},
		{
			"bufferView":1,
			"componentType":5126,
			"count":1818,
			"type":"VEC3"
		},
		{
			"bufferView":2,
			"componentType":5123,
			"count":3189,
			"type":"SCALAR"
		},
		{
			"bufferView":3,
			"componentType":5126,
			"count":738,
			"max":[
				0.5224343538284302,
				0.1511244773864746,
				0.1910163015127182
			],
			"min":[
				-0.5279543399810791,
				-0.1599130630493164,
				-0.19398368895053864
			],
			"type":"VEC3"
		},
		{
			"bufferView":4,
			"componentType":5126,
			"count":738,
			"type":"VEC3"
		},
		{
			"bufferView":5,
			"componentType":5126,
			"count":738,
			"type":"VEC2"
		},
		{
			"bufferView":6,
			"componentType":5123,
			"count":1281,
			"type":"SCALAR"
		},
		{
			"bufferView":7,
			"componentType":5126,
			"count":163,
			"max":[
				0.5066512823104858,
				0.14077186584472656,
				0.17601630091667175
			],
			"min":[
				-0.5120580196380615,
				-0.1512012481689453,
				-0.1789836883544922
			],
			"type":"VEC3"
		},
		{
			"bufferView":8,
			"componentType":5126,
			"count":163,
			"type":"VEC3"
		},
		{
			"bufferView":9,
			"componentType":5126,
			"count":163,
			"type":"VEC2"
		},
		{
			"bufferView":10,
			"componentType":5123,
			"count":348,
			"type":"SCALAR"
		},
		{
			"bufferView":11,
			"componentType":5126,
			"count":114,
			"max":[
				0.4566439390182495,
				0.137298583984375,
				0.17601630091667175
			],
			"min":[
				-0.48130548000335693,
				-0.14242315292358398,
				-0.1789836883544922
			],
			"type":"VEC3"
		},
		{
			"bufferView":12,
			"componentType":5126,
			"count":114,
			"type":"VEC3"
		},
		{
			"bufferView":13,
			"componentType":5126,
			"count":114,
			"type":"VEC2"
		},
		{
			"bufferView":14,
			"componentType":5123,
			"count":177,
			"type":"SCALAR"
		},
		{
			"bufferView":15,
			"componentType":5126,
			"count":92,
			"max":[
				0.46447885036468506,
				0.13559579849243164,
				0.1910163015127182
			],
			"min":[
				-0.469998836517334,
				-0.14438390731811523,
				-0.19398368895053864
			],
			"type":"VEC3"
		},
		{
			"bufferView":16,
			"componentType":5126,
			"count":92,
			"type":"VEC3"
		},
		{
			"bufferView":17,
			"componentType":5126,
			"count":92,
			"type":"VEC2"
		},
		{
			"bufferView":18,
			"componentType":5123,
			"count":129,
			"type":"SCALAR"
		},
		{
			"bufferView":19,
			"componentType":5126,
			"count":119,
			"max":[
				0.48327958583831787,
				0.1388401985168457,
				0.15101630985736847
			],
			"min":[
				-0.4812939167022705,
				-0.11961650848388672,
				-0.1539836972951889
			],
			"type":"VEC3"
		},
		{
			"bufferView":20,
			"componentType":5126,
			"count":119,
			"type":"VEC3"
		},
		{
			"bufferView":21,
			"componentType":5126,
			"count":119,
			"type":"VEC2"
		},
		{
			"bufferView":22,
			"componentType":5123,
			"count":144,
			"type":"SCALAR"
		},
		{
			"bufferView":23,
			"componentType":5126,
			"count":27,
			"max":[
				0.5119000673294067,
				0.13657760620117188,
				0.15102079510688782
			],
			"min":[
				-0.48130738735198975,
				-0.1314988136291504,
				-0.15398383140563965
			],
			"type":"VEC3"
		},
		{
			"bufferView":24,
			"componentType":5126,
			"count":27,
			"type":"VEC3"
		},
		{
			"bufferView":25,
			"componentType":5126,
			"count":27,
			"type":"VEC2"
		},
		{
			"bufferView":26,
			"componentType":5123,
			"count":36,
			"type":"SCALAR"
		},
		{
			"bufferView":27,
			"componentType":5126,
			"count":12,
			"max":[
				0.16601037979125977,
				0.04403114318847656,
				0.09099999815225601
			],
			"min":[
				-0.16626811027526855,
				-0.04500246047973633,
				-0.09100000560283661
			],
			"type":"VEC3"
		},
		{
			"bufferView":28,
			"componentType":5126,
			"count":12,
			"type":"VEC3"
		},
		{
			"bufferView":29,
			"componentType":5126,
			"count":12,
			"type":"VEC2"
		},
		{
			"bufferView":30,
			"componentType":5123,
			"count":18,
			"type":"SCALAR"
		},
		{
			"bufferView":31,
			"componentType":5126,
			"count":72,
			"max":[
				0.1662691831588745,
				0.044997215270996094,
				0.09099999815225601
			],
			"min":[
				-0.16626811027526855,
				-0.04500246047973633,
				-0.09100000560283661
			],
			"type":"VEC3"
		},
		{
			"bufferView":32,
			"componentType":5126,
			"count":72,
			"type":"VEC3"
		},
		{
			"bufferView":33,
			"componentType":5126,
			"count":72,
			"type":"VEC2"
		},
		{
			"bufferView":34,
			"componentType":5123,
			"count":90,
			"type":"SCALAR"
		},
		{
			"bufferView":35,
			"componentType":5126,
			"count":4128,
			"max":[
				0.16616538166999817,
				0.04776725918054581,
				0.16185304522514343
			],
			"min":[
				-0.16740724444389343,
				-0.04609622806310654,
				-0.16014695167541504
			],
			"type":"VEC3"
		},
		{
			"bufferView":36,
			"componentType":5126,
			"count":4128,
			"type":"VEC3"
		},
		{
			"bufferView":37,
			"componentType":5123,
			"count":8316,
			"type":"SCALAR"
		},
		{
			"bufferView":38,
			"componentType":5126,
			"count":90,
			"max":[
				0.3901907205581665,
				-1.4575893878936768,
				5.003128528594971
			],
			"min":[
				-4.609809398651123,
				-1.507589340209961,
				-4.996871471405029
			],
			"type":"VEC3"
		},
		{
			"bufferView":39,
			"componentType":5126,
			"count":90,
			"type":"VEC3"
		},
		{
			"bufferView":40,
			"componentType":5126,
			"count":90,
			"type":"VEC2"
		},
		{
			"bufferView":41,
			"componentType":5123,
			"count":138,
			"type":"SCALAR"
		},
		{
			"bufferView":42,
			"componentType":5126,
			"count":84,
			"max":[
				2.390190601348877,
				-0.9575893878936768,
				5.003128528594971
			],
			"min":[
				0.3901907205581665,
				-1.507589340209961,
				-4.996871471405029
			],
			"type":"VEC3"
		},
		{
			"bufferView":43,
			"componentType":5126,
			"count":84,
			"type":"VEC3"
		},
		{
			"bufferView":44,
			"componentType":5126,
			"count":84,
			"type":"VEC2"
		},
		{
			"bufferView":45,
			"componentType":5123,
			"count":186,
			"type":"SCALAR"
		},
		{
			"bufferView":46,
			"componentType":5126,
			"count":4,
			"max":[
				2.390190601348877,
				-1.257589340209961,
				5.003128528594971
			],
			"min":[
				0.3901907205581665,
				-1.507589340209961,
				5.003128528594971
			],
			"type":"VEC3"
		},
		{
			"bufferView":47,
			"componentType":5126,
			"count":4,
			"type":"VEC3"
		},
		{
			"bufferView":48,
			"componentType":5126,
			"count":4,
			"type":"VEC2"
		},
		{
			"bufferView":49,
			"componentType":5123,
			"count":6,
			"type":"SCALAR"
		},
		{
			"bufferView":50,
			"componentType":5126,
			"count":167,
			"max":[
				0.5738122463226318,
				4.042410373687744,
				0.03247440233826637
			],
			"min":[
				0.5042825937271118,
				-0.9575893878936768,
				-0.03705519065260887
			],
			"type":"VEC3"
		},
		{
			"bufferView":51,
			"componentType":5126,
			"count":167,
			"type":"VEC3"
		},
		{
			"bufferView":52,
			"componentType":5126,
			"count":167,
			"type":"VEC2"
		},
		{
			"bufferView":53,
			"componentType":5123,
			"count":276,
			"type":"SCALAR"
		},
		{
			"bufferView":54,
			"componentType":5126,
			"count":8,
			"max":[
				2.270190715789795,
				-1.257589340209961,
				4.883128643035889
			],
			"min":[
				0.5101907253265381,
				-1.257589340209961,
				-4.876871585845947
			],
			"type":"VEC3"
		},
		{
			"bufferView":55,
			"componentType":5126,
			"count":8,
			"type":"VEC3"
		},
		{
			"bufferView":56,
			"componentType":5126,
			"count":8,
			"type":"VEC2"
		},
		{
			"bufferView":57,
			"componentType":5123,
			"count":18,
			"type":"SCALAR"
		}
	],
	"bufferViews":[
		{
			"buffer":0,
			"byteLength":21816,
			"byteOffset":0,
			"target":34962
		},
		{
			"buffer":0,
			"byteLength":21816,
			"byteOffset":21816,
			"target":34962
		},
		{
			"buffer":0,
			"byteLength":6378,
			"byteOffset":43632,
			"target":34963
		},
		{
			"buffer":0,
			"byteLength":8856,
			"byteOffset":50012,
			"target":34962
		},
		{
			"buffer":0,
			"byteLength":8856,
			"byteOffset":58868,
			"target":34962
		},
		{
			"buffer":0,
			"byteLength":5904,
			"byteOffset":67724,
			"target":34962
		},
		{
			"buffer":0,
			"byteLength":2562,
			"byteOffset":73628,
			"target":34963
		},
		{
			"buffer":0,
			"byteLength":1956,
			"byteOffset":76192,
			"target":34962
		},
		{
			"buffer":0,
			"byteLength":1956,
			"byteOffset":78148,
			"target":34962
		},
		{
			"buffer":0,
			"byteLength":1304,
			"byteOffset":80104,
			"target":34962
		},
		{
			"buffer":0,
			"byteLength":696,
			"byteOffset":81408,
			"target":34963
		},
		{
			"buffer":0,
			"byteLength":1368,
			"byteOffset":82104,
			"target":34962
		},
		{
			"buffer":0,
			"byteLength":1368,
			"byteOffset":83472,
			"target":34962
		},
		{
			"buffer":0,
			"byteLength":912,
			"byteOffset":84840,
			"target":34962
		},
		{
			"buffer":0,
			"byteLength":354,
			"byteOffset":85752,
			"target":34963
		},
		{
			"buffer":0,
			"byteLength":1104,
			"byteOffset":86108,
			"target":34962
		},
		{
			"buffer":0,
			"byteLength":1104,
			"byteOffset":87212,
			"target":34962
		},
		{
			"buffer":0,
			"byteLength":736,
			"byteOffset":88316,
			"target":34962
		},
		{
			"buffer":0,
			"byteLength":258,
			"byteOffset":89052,
			"target":34963
		},
		{
			"buffer":0,
			"byteLength":1428,
			"byteOffset":89312,
			"target":34962
		},
		{
			"buffer":0,
			"byteLength":1428,
			"byteOffset":90740,
			"target":34962
		},
		{
			"buffer":0,
			"byteLength":952,
			"byteOffset":92168,
			"target":34962
		},
		{
			"buffer":0,
			"byteLength":288,
			"byteOffset":93120,
			"target":34963
		},
		{
			"buffer":0,
			"byteLength":324,
			"byteOffset":93408,
			"target":34962
		},
		{
			"buffer":0,
			"byteLength":324,
			"byteOffset":93732,
			"target":34962
		},
		{
			"buffer":0,
			"byteLength":216,
			"byteOffset":94056,
			"target":34962
		},
		{
			"buffer":0,
			"byteLength":72,
			"byteOffset":94272,
			"target":34963
		},
		{
			"buffer":0,
			"byteLength":144,
			"byteOffset":94344,
			"target":34962
		},
		{
			"buffer":0,
			"byteLength":144,
			"byteOffset":94488,
			"target":34962
		},
		{
			"buffer":0,
			"byteLength":96,
			"byteOffset":94632,
			"target":34962
		},
		{
			"buffer":0,
			"byteLength":36,
			"byteOffset":94728,
			"target":34963
		},
		{
			"buffer":0,
			"byteLength":864,
			"byteOffset":94764,
			"target":34962
		},
		{
			"buffer":0,
			"byteLength":864,
			"byteOffset":95628,
			"target":34962
		},
		{
			"buffer":0,
			"byteLength":576,
			"byteOffset":96492,
			"target":34962
		},
		{
			"buffer":0,
			"byteLength":180,
			"byteOffset":97068,
			"target":34963
		},
		{
			"buffer":0,
			"byteLength":49536,
			"byteOffset":97248,
			"target":34962
		},
		{
			"buffer":0,
			"byteLength":49536,
			"byteOffset":146784,
			"target":34962
		},
		{
			"buffer":0,
			"byteLength":16632,
			"byteOffset":196320,
			"target":34963
		},
		{
			"buffer":0,
			"byteLength":1080,
			"byteOffset":212952,
			"target":34962
		},
		{
			"buffer":0,
			"byteLength":1080,
			"byteOffset":214032,
			"target":34962
		},
		{
			"buffer":0,
			"byteLength":720,
			"byteOffset":215112,
			"target":34962
		},
		{
			"buffer":0,
			"byteLength":276,
			"byteOffset":215832,
			"target":34963
		},
		{
			"buffer":0,
			"byteLength":1008,
			"byteOffset":216108,
			"target":34962
		},
		{
			"buffer":0,
			"byteLength":1008,
			"byteOffset":217116,
			"target":34962
		},
		{
			"buffer":0,
			"byteLength":672,
			"byteOffset":218124,
			"target":34962
		},
		{
			"buffer":0,
			"byteLength":372,
			"byteOffset":218796,
			"target":34963
		},
		{
			"buffer":0,
			"byteLength":48,
			"byteOffset":219168,
			"target":34962
		},
		{
			"buffer":0,
			"byteLength":48,
			"byteOffset":219216,
			"target":34962
		},
		{
			"buffer":0,
			"byteLength":32,
			"byteOffset":219264,
			"target":34962
		},
		{
			"buffer":0,
			"byteLength":12,
			"byteOffset":219296,
			"target":34963
		},
		{
			"buffer":0,
			"byteLength":2004,
			"byteOffset":219308,
			"target":34962
		},
		{
			"buffer":0,
			"byteLength":2004,
			"byteOffset":221312,
			"target":34962
		},
		{
			"buffer":0,
			"byteLength":1336,
			"byteOffset":223316,
			"target":34962
		},
		{
			"buffer":0,
			"byteLength":552,
			"byteOffset":224652,
			"target":34963
		},
		{
			"buffer":0,
			"byteLength":96,
			"byteOffset":225204,
			"target":34962
		},
		{
			"buffer":0,
			"byteLength":96,
			"byteOffset":225300,
			"target":34962
		},
		{
			"buffer":0,
			"byteLength":64,
			"byteOffset":225396,
			"target":34962
		},
		{
			"buffer":0,
			"byteLength":36,
			"byteOffset":225460,
			"target":34963
		}
	],
	"samplers":[
		{
			"magFilter":9729,
			"minFilter":9987
		}
	],
	"buffers":[
		{
			"byteLength":225496,
			"uri":"NuevosLed_z60.bin"
		}
	]
}
