{
  "asset": {
    "version": "2.0",
    "generator": "Sketchup glTF Exporter v1.2.6 by Centaur"
  },
  "scene": 0,
  "scenes": [
    {
      "nodes": [
        0
      ]
    }
  ],
  "samplers": [
    {
    }
  ],
  "nodes": [
    {
      "name": "root",
      "children": [
        1,
        2,
        3,
        4
      ]
    },
    {
      "name": "inclinacion",
      "mesh": 0
    },
    {
      "name": "azimuth",
      "mesh": 1
    },
    {
      "name": "base",
      "mesh": 2
    },
    {
      "name": "panel",
      "mesh": 3
    }
  ],
  "materials": [
    {
      "pbrMetallicRoughness": {
        "baseColorFactor": [
          0.0385,
          0.0385,
          0.0385,
          1.0
        ],
        "metallicFactor": 0.1,
        "roughnessFactor": 0.9
      },
      "name": "Color M07"
    },
    {
      "pbrMetallicRoughness": {
        "baseColorFactor": [
          0.0915,
          0.0915,
          0.0915,
          1.0
        ],
        "metallicFactor": 0.1,
        "roughnessFactor": 0.9
      },
      "name": "Color M06"
    },
    {
      "pbrMetallicRoughness": {
        "baseColorFactor": [
          0.2176,
          0.2176,
          0.2176,
          1.0
        ],
        "metallicFactor": 0.1,
        "roughnessFactor": 0.9
      },
      "name": "default material",
      "doubleSided": true
    },
    {
      "pbrMetallicRoughness": {
        "baseColorTexture": {
          "index": 0
        },
        "metallicFactor": 0.1,
        "roughnessFactor": 0.9
      },
      "name": "Concreto agregado color humo"
    },
    {
      "pbrMetallicRoughness": {
        "baseColorFactor": [
          0.7667,
          0.7667,
          0.7667,
          1.0
        ],
        "metallicFactor": 0.1,
        "roughnessFactor": 0.9
      },
      "name": "Color M01"
    },
    {
      "pbrMetallicRoughness": {
        "baseColorFactor": [
          0.7227,
          0.7227,
          0.7227,
          1.0
        ],
        "metallicFactor": 0.1,
        "roughnessFactor": 0.9
      },
      "name": "0130_Gainsboro"
    },
    {
      "pbrMetallicRoughness": {
        "baseColorTexture": {
          "index": 1
        },
        "metallicFactor": 0.1,
        "roughnessFactor": 0.9
      },
      "name": "Material3"
    },
    {
      "pbrMetallicRoughness": {
        "baseColorFactor": [
          1.0,
          1.0,
          1.0,
          1.0
        ],
        "metallicFactor": 0.1,
        "roughnessFactor": 0.9
      },
      "name": "0128_Blanco"
    },
    {
      "pbrMetallicRoughness": {
        "baseColorFactor": [
          0.9158,
          0.9158,
          0.9158,
          1.0
        ],
        "metallicFactor": 0.1,
        "roughnessFactor": 0.9
      },
      "name": "0129_BlancoHumo"
    }
  ],
  "images": [
    {
      "bufferView": 0,
      "mimeType": "image/jpeg"
    },
    {
      "bufferView": 1,
      "mimeType": "image/jpeg"
    }
  ],
  "textures": [
    {
      "source": 0,
      "sampler": 0
    },
    {
      "source": 1,
      "sampler": 0
    }
  ],
  "meshes": [
    {
      "primitives": [
        {
          "attributes": {
            "POSITION": 0,
            "NORMAL": 1
          },
          "indices": 5,
          "mode": 4,
          "material": 0
        }
      ]
    },
    {
      "primitives": [
        {
          "attributes": {
            "POSITION": 0,
            "NORMAL": 1
          },
          "indices": 6,
          "mode": 4,
          "material": 1
        }
      ]
    },
    {
      "primitives": [
        {
          "attributes": {
            "POSITION": 0,
            "NORMAL": 1
          },
          "indices": 7,
          "mode": 4,
          "material": 1
        },
        {
          "attributes": {
            "POSITION": 0,
            "NORMAL": 1
          },
          "indices": 8,
          "mode": 4,
          "material": 2
        },
        {
          "attributes": {
            "POSITION": 2,
            "NORMAL": 3,
            "TEXCOORD_0": 4
          },
          "indices": 9,
          "mode": 4,
          "material": 3
        }
      ]
    },
    {
      "primitives": [
        {
          "attributes": {
            "POSITION": 0,
            "NORMAL": 1
          },
          "indices": 10,
          "mode": 4,
          "material": 4
        },
        {
          "attributes": {
            "POSITION": 0,
            "NORMAL": 1
          },
          "indices": 11,
          "mode": 4,
          "material": 5
        },
        {
          "attributes": {
            "POSITION": 2,
            "NORMAL": 3,
            "TEXCOORD_0": 4
          },
          "indices": 12,
          "mode": 4,
          "material": 6
        },
        {
          "attributes": {
            "POSITION": 0,
            "NORMAL": 1
          },
          "indices": 13,
          "mode": 4,
          "material": 7
        },
        {
          "attributes": {
            "POSITION": 0,
            "NORMAL": 1
          },
          "indices": 14,
          "mode": 4,
          "material": 8
        }
      ]
    }
  ],
  "accessors": [
    {
      "bufferView": 2,
      "componentType": 5126,
      "count": 1187,
      "type": "VEC3",
      "min": [
        -0.6302459746367212,
        0.19999999999999998,
        -1.3675779467447842
      ],
      "max": [
        1.1297540253632792,
        2.5599999999999996,
        0.8524220532552165
      ]
    },
    {
      "bufferView": 3,
      "componentType": 5126,
      "count": 1187,
      "type": "VEC3",
      "min": [
        -1.0,
        -1.0,
        -1.0
      ],
      "max": [
        1.0,
        1.0,
        1.0
      ]
    },
    {
      "bufferView": 4,
      "componentType": 5126,
      "count": 89,
      "type": "VEC3",
      "min": [
        -0.5872459746367208,
        -3.061616997868383e-17,
        -1.3275779467447841
      ],
      "max": [
        1.0897540253632791,
        2.5569999999999995,
        0.8124220532552164
      ]
    },
    {
      "bufferView": 5,
      "componentType": 5126,
      "count": 89,
      "type": "VEC3",
      "min": [
        -1.0,
        -1.0,
        -1.0
      ],
      "max": [
        1.0,
        1.0,
        1.0
      ]
    },
    {
      "bufferView": 6,
      "componentType": 5126,
      "count": 89,
      "type": "VEC2",
      "min": [
        -1.6404199475065617,
        -2.136152037695418
      ],
      "max": [
        2.2299653354880817,
        1.0
      ]
    },
    {
      "bufferView": 7,
      "componentType": 5123,
      "count": 1884,
      "type": "SCALAR"
    },
    {
      "bufferView": 7,
      "componentType": 5123,
      "count": 48,
      "type": "SCALAR",
      "byteOffset": 3768
    },
    {
      "bufferView": 7,
      "componentType": 5123,
      "count": 321,
      "type": "SCALAR",
      "byteOffset": 3864
    },
    {
      "bufferView": 7,
      "componentType": 5123,
      "count": 264,
      "type": "SCALAR",
      "byteOffset": 4506
    },
    {
      "bufferView": 8,
      "componentType": 5121,
      "count": 201,
      "type": "SCALAR"
    },
    {
      "bufferView": 7,
      "componentType": 5123,
      "count": 111,
      "type": "SCALAR",
      "byteOffset": 5034
    },
    {
      "bufferView": 7,
      "componentType": 5123,
      "count": 96,
      "type": "SCALAR",
      "byteOffset": 5256
    },
    {
      "bufferView": 8,
      "componentType": 5121,
      "count": 18,
      "type": "SCALAR",
      "byteOffset": 201
    },
    {
      "bufferView": 7,
      "componentType": 5123,
      "count": 6,
      "type": "SCALAR",
      "byteOffset": 5448
    },
    {
      "bufferView": 7,
      "componentType": 5123,
      "count": 9,
      "type": "SCALAR",
      "byteOffset": 5460
    }
  ],
  "bufferViews": [
    {
      "buffer": 0,
      "byteLength": 27420
    },
    {
      "buffer": 0,
      "byteOffset": 27420,
      "byteLength": 33413
    },
    {
      "buffer": 0,
      "byteOffset": 60840,
      "byteLength": 14244,
      "target": 34962,
      "byteStride": 12
    },
    {
      "buffer": 0,
      "byteOffset": 75084,
      "byteLength": 14244,
      "target": 34962,
      "byteStride": 12
    },
    {
      "buffer": 0,
      "byteOffset": 89328,
      "byteLength": 1068,
      "target": 34962,
      "byteStride": 12
    },
    {
      "buffer": 0,
      "byteOffset": 90396,
      "byteLength": 1068,
      "target": 34962,
      "byteStride": 12
    },
    {
      "buffer": 0,
      "byteOffset": 91464,
      "byteLength": 712,
      "target": 34962,
      "byteStride": 8
    },
    {
      "buffer": 0,
      "byteOffset": 92176,
      "byteLength": 5478,
      "target": 34963
    },
    {
      "buffer": 0,
      "byteOffset": 97654,
      "byteLength": 219,
      "target": 34963
    }
  ],
  "buffers": [
    {
      "uri": "data:application/octet-stream;base64,",
      "byteLength": 97873
    }
  ]
}