{
	"asset":{
		"generator":"Khronos glTF Blender I/O v4.1.62",
		"version":"2.0"
	},
	"extensionsUsed":[
		"KHR_materials_transmission"
	],
	"scene":0,
	"scenes":[
		{
			"name":"Scene",
			"nodes":[
				0,
				1,
				2
			]
		}
	],
	"nodes":[
		{
			"mesh":0,
			"name":"Cube.002",
			"translation":[
				-0.04076089337468147,
				0.036531828343868256,
				1.0652880668640137
			]
		},
		{
			"mesh":1,
			"name":"leds",
			"translation":[
				-0.0005543665029108524,
				0.06140734255313873,
				1.0653280019760132
			]
		},
		{
			"mesh":2,
			"name":"Esfera Grande",
			"scale":[
				0.01097918301820755,
				0.01097918301820755,
				0.01097918301820755
			],
			"translation":[
				0.001449264120310545,
				0.0365544818341732,
				1.0663832426071167
			]
		}
	],
	"materials":[
		{
			"alphaMode":"BLEND",
			"doubleSided":true,
			"extensions":{
				"KHR_materials_transmission":{
					"transmissionFactor":1
				}
			},
			"name":"Material",
			"pbrMetallicRoughness":{
				"baseColorFactor":[
					0.800000011920929,
					0.800000011920929,
					0.800000011920929,
					1
				],
				"metallicFactor":0,
				"roughnessFactor":0.418181836605072
			}
		}
	],
	"meshes":[
		{
			"name":"Cube.001",
			"primitives":[
				{
					"attributes":{
						"POSITION":0,
						"NORMAL":1,
						"TEXCOORD_0":2
					},
					"indices":3
				}
			]
		},
		{
			"name":"Plano.002",
			"primitives":[
				{
					"attributes":{
						"POSITION":4,
						"NORMAL":5,
						"TEXCOORD_0":6
					},
					"indices":7,
					"material":0
				}
			]
		},
		{
			"name":"Esfera",
			"primitives":[
				{
					"attributes":{
						"POSITION":8,
						"NORMAL":9,
						"TEXCOORD_0":10
					},
					"indices":11
				}
			]
		}
	],
	"accessors":[
		{
			"bufferView":0,
			"componentType":5126,
			"count":385,
			"max":[
				0.03749999776482582,
				0.027499999850988388,
				0.04599999636411667
			],
			"min":[
				-0.03749999776482582,
				-0.027499999850988388,
				-0.04599999636411667
			],
			"type":"VEC3"
		},
		{
			"bufferView":1,
			"componentType":5126,
			"count":385,
			"type":"VEC3"
		},
		{
			"bufferView":2,
			"componentType":5126,
			"count":385,
			"type":"VEC2"
		},
		{
			"bufferView":3,
			"componentType":5123,
			"count":819,
			"type":"SCALAR"
		},
		{
			"bufferView":4,
			"componentType":5126,
			"count":4676,
			"max":[
				0.0060799638740718365,
				0,
				0.045023489743471146
			],
			"min":[
				-0.009203342720866203,
				-0.04999999701976776,
				-0.045023489743471146
			],
			"type":"VEC3"
		},
		{
			"bufferView":5,
			"componentType":5126,
			"count":4676,
			"type":"VEC3"
		},
		{
			"bufferView":6,
			"componentType":5126,
			"count":4676,
			"type":"VEC2"
		},
		{
			"bufferView":7,
			"componentType":5123,
			"count":7683,
			"type":"SCALAR"
		},
		{
			"bufferView":8,
			"componentType":5126,
			"count":1984,
			"max":[
				0.9999997019767761,
				1,
				0.9999993443489075
			],
			"min":[
				-0.9999990463256836,
				-1,
				-1
			],
			"type":"VEC3"
		},
		{
			"bufferView":9,
			"componentType":5126,
			"count":1984,
			"type":"VEC3"
		},
		{
			"bufferView":10,
			"componentType":5126,
			"count":1984,
			"type":"VEC2"
		},
		{
			"bufferView":11,
			"componentType":5123,
			"count":2880,
			"type":"SCALAR"
		}
	],
	"bufferViews":[
		{
			"buffer":0,
			"byteLength":4620,
			"byteOffset":0,
			"target":34962
		},
		{
			"buffer":0,
			"byteLength":4620,
			"byteOffset":4620,
			"target":34962
		},
		{
			"buffer":0,
			"byteLength":3080,
			"byteOffset":9240,
			"target":34962
		},
		{
			"buffer":0,
			"byteLength":1638,
			"byteOffset":12320,
			"target":34963
		},
		{
			"buffer":0,
			"byteLength":56112,
			"byteOffset":13960,
			"target":34962
		},
		{
			"buffer":0,
			"byteLength":56112,
			"byteOffset":70072,
			"target":34962
		},
		{
			"buffer":0,
			"byteLength":37408,
			"byteOffset":126184,
			"target":34962
		},
		{
			"buffer":0,
			"byteLength":15366,
			"byteOffset":163592,
			"target":34963
		},
		{
			"buffer":0,
			"byteLength":23808,
			"byteOffset":178960,
			"target":34962
		},
		{
			"buffer":0,
			"byteLength":23808,
			"byteOffset":202768,
			"target":34962
		},
		{
			"buffer":0,
			"byteLength":15872,
			"byteOffset":226576,
			"target":34962
		},
		{
			"buffer":0,
			"byteLength":5760,
			"byteOffset":242448,
			"target":34963
		}
	],
	"buffers":[
		{
			"byteLength":248208,
			"uri":"Lampara_SWL_10_2.bin"
		}
	]
}
